<?xml version="1.0" encoding="UTF-8" standalone="no"?>
<!-- Created with Inkscape (http://www.inkscape.org/) -->

<svg
   xmlns:dc="http://purl.org/dc/elements/1.1/"
   xmlns:cc="http://creativecommons.org/ns#"
   xmlns:rdf="http://www.w3.org/1999/02/22-rdf-syntax-ns#"
   xmlns:svg="http://www.w3.org/2000/svg"
   xmlns="http://www.w3.org/2000/svg"
   xmlns:sodipodi="http://sodipodi.sourceforge.net/DTD/sodipodi-0.dtd"
   xmlns:inkscape="http://www.inkscape.org/namespaces/inkscape"
   width="744.09448819"
   height="1052.3622047"
   id="svg2"
   version="1.1"
   inkscape:version="0.47 r22583"
   sodipodi:docname="scrooby_logo">
  <defs
     id="defs4">
    <inkscape:perspective
       sodipodi:type="inkscape:persp3d"
       inkscape:vp_x="0 : 526.18109 : 1"
       inkscape:vp_y="0 : 1000 : 0"
       inkscape:vp_z="744.09448 : 526.18109 : 1"
       inkscape:persp3d-origin="372.04724 : 350.78739 : 1"
       id="perspective10" />
    <inkscape:perspective
       id="perspective2845"
       inkscape:persp3d-origin="0.5 : 0.33333333 : 1"
       inkscape:vp_z="1 : 0.5 : 1"
       inkscape:vp_y="0 : 1000 : 0"
       inkscape:vp_x="0 : 0.5 : 1"
       sodipodi:type="inkscape:persp3d" />
    <inkscape:perspective
       id="perspective2925"
       inkscape:persp3d-origin="0.5 : 0.33333333 : 1"
       inkscape:vp_z="1 : 0.5 : 1"
       inkscape:vp_y="0 : 1000 : 0"
       inkscape:vp_x="0 : 0.5 : 1"
       sodipodi:type="inkscape:persp3d" />
  </defs>
  <sodipodi:namedview
     id="base"
     pagecolor="#ffffff"
     bordercolor="#666666"
     borderopacity="1.0"
     inkscape:pageopacity="0.0"
     inkscape:pageshadow="2"
     inkscape:zoom="0.45311299"
     inkscape:cx="-142.14282"
     inkscape:cy="237.66158"
     inkscape:document-units="px"
     inkscape:current-layer="layer1"
     showgrid="false"
     inkscape:window-width="1280"
     inkscape:window-height="752"
     inkscape:window-x="0"
     inkscape:window-y="0"
     inkscape:window-maximized="0" />
  <metadata
     id="metadata7">
    <rdf:RDF>
      <cc:Work
         rdf:about="">
        <dc:format>image/svg+xml</dc:format>
        <dc:type
           rdf:resource="http://purl.org/dc/dcmitype/StillImage" />
        <dc:title></dc:title>
      </cc:Work>
    </rdf:RDF>
  </metadata>
  <g
     inkscape:label="Layer 1"
     inkscape:groupmode="layer"
     id="layer1">
    <path
       style="fill:none;stroke:#000000;stroke-width:6.61331129px;stroke-linecap:butt;stroke-linejoin:miter;stroke-opacity:1"
       d="m 122.19575,784.75908 c 0.49203,-0.32802 0.98413,-0.65604 1.47616,-0.98412 0.65604,-0.32802 1.35791,-0.57735 1.96826,-0.98413 0.87381,-0.58263 1.67535,-1.27048 2.46028,-1.96825 5.91369,-5.91363 -1.05191,0.79465 3.44448,-2.95232 0.53435,-0.44574 0.91945,-1.05866 1.47615,-1.47622 0.13095,-0.0985 0.34522,0.0734 0.49203,0 0.20766,-0.10383 0.28438,-0.3882 0.49203,-0.49203 0.14682,-0.0734 0.41863,0.14681 0.49203,0 0.14682,-0.29363 -0.14681,-0.69076 0,-0.98413 0.0734,-0.14682 0.32802,0 0.49204,0 0.16401,0 0.32802,0 0.49203,0 2.39772,0 0.50062,-0.24205 2.95238,0.98413 0.46425,0.23212 1.0123,0.2599 1.47622,0.49203 0.20766,0.10383 0.28437,0.3882 0.49203,0.49203 0.14682,0.0734 0.3763,-0.11573 0.49203,0 0.11573,0.11573 -0.11573,0.3763 0,0.49203 0.11573,0.11573 0.3763,-0.11573 0.49203,0 0.11573,0.11573 -0.0734,0.34521 0,0.49203 0.10383,0.20766 0.36373,0.29892 0.49203,0.49203 0.20369,0.30487 0.28834,0.67899 0.49203,0.98413 0.49203,0.73811 0.98413,0.49203 1.47622,1.47615 0.0595,0.11574 0,1.64506 0,1.96826 0,1.31221 0,2.62436 0,3.9365 0,0.82012 0,1.64024 0,2.46035 0,0.16401 0,0.32802 0,0.49203 0,0.16401 0.0734,0.34522 0,0.49204 -0.10382,0.20765 -0.3882,0.28437 -0.49203,0.49203 -0.26254,0.52509 0.26255,0.45896 0,0.98412 -1.63196,1.63197 0.23213,-0.46425 -0.49203,0.98413 -0.10383,0.20766 -0.3882,0.28437 -0.49203,0.49203 -0.0734,0.14682 0.0913,0.3558 0,0.49203 -0.25725,0.38622 -0.7268,0.59784 -0.98412,0.98413 -0.7934,1.19013 1.84749,-0.39548 -0.49203,1.47615 -0.57272,0.45831 -1.38146,0.54428 -1.96826,0.98413 -0.74228,0.55684 -1.27862,1.3476 -1.96825,1.96825 -0.95219,0.85696 -1.93697,1.67926 -2.95238,2.46029 -1.14814,0.82012 -2.29628,1.64023 -3.44441,2.46035 -0.65604,0.32802 -1.35791,0.57734 -1.96826,0.98413 -0.38621,0.25725 -0.59784,0.7268 -0.98412,0.98412 -0.13624,0.0913 -0.34522,-0.0734 -0.49203,0 -0.20766,0.10383 -0.28438,0.3882 -0.49203,0.49203 -0.14682,0.0734 -0.34522,-0.0734 -0.49203,0 -0.41466,0.20766 -0.52907,0.89313 -0.98413,0.98413 -0.64348,0.12896 -1.31215,0 -1.96819,0 -0.16401,0 -0.35579,-0.0913 -0.49203,0 -0.38622,0.25726 -0.59784,0.7268 -0.98413,0.98413 -0.13623,0.0913 -0.34521,-0.0734 -0.49203,0 -0.20765,0.10383 -0.28437,0.3882 -0.49203,0.49203 -0.14681,0.0734 -0.37629,-0.11574 -0.49203,0 -0.11573,0.11573 0.14682,0.41862 0,0.49203 -0.39349,0.19707 -1.08253,-0.19708 -1.47622,0 -0.20766,0.10383 -0.28437,0.3882 -0.49203,0.49203 -0.14682,0.0734 -0.32802,0 -0.49203,0 -0.32802,0 -0.66246,-0.0661 -0.98413,0 -0.50856,0.10184 -0.96753,0.39018 -1.47616,0.49203 -0.48806,0.0979 -1.94332,0 -2.46028,0 -0.26321,0 -2.31949,0.0701 -2.46035,0 -0.20766,-0.10383 -0.28437,-0.3882 -0.49203,-0.49203 -0.29363,-0.14682 -0.69076,0.14681 -0.98413,0 -0.20765,-0.10383 -0.26453,-0.4464 -0.49203,-0.49203 -0.64347,-0.12896 -1.32491,0.12896 -1.96825,0 -0.2275,-0.0463 -0.27181,-0.41863 -0.49203,-0.49203 -0.31149,-0.10383 -0.6659,0.0794 -0.98413,0 -1.42708,-0.35712 -0.57602,-0.38424 -1.47622,-0.98413 -0.32802,-0.16401 -0.65604,-0.32802 -0.98406,-0.49203 -0.16401,0 -0.34522,0.0734 -0.49203,0 -0.20766,-0.10383 -0.3882,-0.28437 -0.49203,-0.49203 -0.0734,-0.14682 0.14681,-0.41862 0,-0.49203 -0.29363,-0.14682 -0.65604,0 -0.98413,0 -0.656042,-0.32802 -1.339262,-0.60644 -1.968252,-0.98413 -0.36704,-0.22022 -1.13981,-1.1398 -1.47623,-1.47616 -1.12823,-1.12823 0.31149,0.20766 -1.47615,-0.98412 -0.19311,-0.12896 -0.29297,-0.37299 -0.49203,-0.49203 -0.62893,-0.37762 -1.31215,-0.65604 -1.96826,-0.98413 -0.32802,-0.16401 -0.62826,-0.40341 -0.98406,-0.49203 -2.24006,0 -0.0265,0.23213 -1.47622,-0.49203 -0.14682,-0.0734 -0.41862,0.14682 -0.49203,0 -0.14682,-0.29363 0.23212,-0.75213 0,-0.98406 -0.23213,-0.23213 -0.6659,0.0794 -0.98413,0 -0.3558,-0.0893 -0.64347,-0.3558 -0.98413,-0.49203 -0.48145,-0.19245 -1.07115,-0.16798 -1.47622,-0.49203 -0.46161,-0.36969 -0.5661,-1.05806 -0.98413,-1.47622 -0.25924,-0.25925 -0.66959,-0.30356 -0.98412,-0.49203 -0.50724,-0.30422 -1.058,-0.5661 -1.47616,-0.98413 -0.41796,-0.41796 -0.52973,-1.09761 -0.98413,-1.47623 -0.56345,-0.46954 -1.41134,-0.50657 -1.96825,-0.98412 -0.11044,-0.0946 -1.81853,-2.20376 -1.96825,-2.95238 -0.0966,-0.48211 0.18252,-1.01931 0,-1.47616 -0.17195,-0.43053 -0.74546,-0.5866 -0.98413,-0.98413 -0.47881,-0.79796 -0.66239,-2.6938 -0.98413,-3.44441 -0.23279,-0.54361 -0.75114,-0.93261 -0.98413,-1.47622 -0.53303,-1.24317 -0.55617,-2.65333 -0.98412,-3.93644 -0.27908,-0.83797 -0.70478,-1.62238 -0.98413,-2.46035 -0.42788,-1.28312 -0.61239,-2.636 -0.98413,-3.93651 0.0198,-0.96131 -0.70478,-1.62231 -0.98406,-2.46028 -0.10383,-0.31149 0.14682,-0.6907 0,-0.98413 -0.10383,-0.20766 -0.41862,-0.27181 -0.49203,-0.49203 -0.20765,-0.62231 0.15938,-1.33179 0,-1.96825 -0.0893,-0.3558 -0.37629,-0.63621 -0.49203,-0.98413 -0.11308,-0.3386 0.1455,-1.1859 0,-1.47622 -0.10383,-0.20766 -0.41862,-0.27181 -0.49203,-0.49204 -0.49203,-1.47622 0.24602,-0.49203 0,-1.47622 -0.12565,-0.50327 -0.40672,-0.96455 -0.49203,-1.47616 -0.10184,-0.61239 0,-2.67746 0,-3.44441 0,-0.16401 0.0397,-0.33331 0,-0.49203 -0.12565,-0.50327 -0.40672,-0.96455 -0.49203,-1.47615 -0.0807,-0.48542 0,-0.98413 0,-1.47623 0,-1.31214 0,-2.62429 0,-3.93651 0,-0.4173 -0.0813,-2.62588 0,-2.95231 0.0893,-0.3558 0.3558,-0.64347 0.49203,-0.98413 0.85173,-2.12935 0.16269,-1.3093 1.47616,-3.9365 0.26453,-0.52907 0.67985,-0.96912 0.98413,-1.47623 0.37762,-0.62892 0.65604,-1.31214 0.98412,-1.96825 0.16401,-0.32802 0.27181,-0.6907 0.49203,-0.98406 0.27842,-0.37101 0.72681,-0.59784 0.98413,-0.98413 0.98413,-1.47622 0.73811,-1.72224 1.47622,-2.95238 -0.0463,-1.08829 1.02123,-1.28589 1.47616,-1.96825 0.20369,-0.30554 0.27181,-0.6907 0.49203,-0.98413 0.27842,-0.37101 0.69427,-0.62165 0.98413,-0.98413 0.36968,-0.46161 0.65604,-0.98412 0.98412,-1.47622 0.32803,-0.49203 0.7196,-0.94722 0.98413,-1.47616 0.23213,-0.46425 0.22485,-1.03141 0.49203,-1.47615 1.47616,-2.46035 0.49203,0 1.47616,-1.47623 1.78387,-3.56775 -0.51848,0.77806 0.98413,-1.47615 1.99159,-2.98737 -1.41644,1.5407 0.98412,-2.46035 0.23874,-0.39746 0.70578,-0.61306 0.98413,-0.98413 0.22022,-0.29363 0.27181,-0.6907 0.49203,-0.98413 0.27842,-0.37101 0.7268,-0.59784 0.98413,-0.98406 0.0913,-0.13623 -0.14682,-0.41862 0,-0.49203 0.29363,-0.14682 0.69069,0.14682 0.98412,0 0.14682,-0.0734 0,-0.32802 0,-0.49203 0,-0.32802 -0.10383,-0.67297 0,-0.98413 0.14682,-0.44044 0.77661,-0.5694 0.98413,-0.98412 0.0734,-0.14682 -0.11573,-0.3763 0,-0.49203 0.25924,-0.25925 0.67892,-0.28834 0.98413,-0.49203 0.56808,-0.37829 0.9084,-1.09768 1.47615,-1.47623 1.54997,-1.03333 0.42987,-0.28305 1.47616,-0.49203 0.66318,-0.13293 1.3351,-0.25461 1.96826,-0.49203 4.02651,-2.01322 -0.0833,-0.13623 3.9365,-1.47616 0.83798,-0.27908 1.614312,-0.7303 2.460352,-0.98412 1.60214,-0.48079 3.33371,-0.455 4.92057,-0.98413 2.88764,-0.9625 0.96674,-1.10495 3.93651,-1.47616 0.65075,-0.0813 1.31724,0.0814 1.96825,0 1.25151,0.082 2.26235,-0.81529 3.44441,-0.98412 0.64943,-0.0926 1.31222,0 1.96826,0 0.82011,0 1.64023,0 2.46035,0 1.80417,0 3.60842,0 5.41266,0 2.29628,0 4.59255,0 6.88889,0 0.0847,0 2.7719,-0.0595 2.95231,0 1.07202,-0.18385 0.16401,0.82005 0.49203,0.98412 0.29364,0.14682 0.7112,-0.18186 0.98413,0 0.30488,0.20369 0.23279,0.72476 0.49203,0.98413 0.25924,0.25924 0.69076,0.27181 0.98413,0.49203 0.37101,0.27842 0.65604,0.65604 0.98413,0.98413 0.32802,0.32802 0.7268,0.59784 0.98412,0.98412 0.40672,0.61041 0.57734,1.35792 0.98413,1.96826 0.12168,1.16864 1.45592,0.83579 1.96825,1.47616 0.45831,0.57271 0.65604,1.31221 0.98413,1.96825 0.32802,0.65604 0.65604,1.31215 0.98413,1.96825 0.32802,0.65604 0.60644,1.33926 0.98412,1.96826 0.11904,0.19906 0.38821,0.28437 0.49203,0.49203 0.0734,0.14681 -0.11573,0.37629 0,0.49203 0.11574,0.11573 0.3763,-0.11574 0.49203,0 0.11574,0.11573 -0.14681,0.41862 0,0.49203 0.29364,0.14681 0.75214,-0.23213 0.98413,0 0.36704,0.36704 0.32802,0.98412 0.49203,1.47622 0.16401,0.49203 0.32802,0.98413 0.49203,1.47616 0.16401,0.49203 0.32802,0.98412 0.49203,1.47622 0.16401,0 0.41862,-0.14681 0.49203,0 0.14682,0.29363 -0.18186,0.71113 0,0.98413 0.20369,0.30487 0.82005,0.16401 0.98413,0.49203 0.22022,0.44044 -0.18253,1.01931 0,1.47622 0.17195,0.43053 0.70577,0.61306 0.98413,0.98406 1.08405,0.248 0.2599,1.0123 0.49203,1.47623 0.26255,0.52509 0.72164,0.45896 0.98412,0.98412 0.23213,0.46426 0.32802,0.98413 0.49203,1.47616 0.32802,0.82012 0.58925,1.67032 0.98406,2.46035 0.42789,0.85543 1.01178,1.62423 1.47623,2.46028 0.35646,0.6415 0.5952,1.34621 0.98412,1.96826 0.4345,0.69545 0.99947,1.3009 1.47616,1.96825 0.68752,0.96244 1.31222,1.96826 1.96826,2.95238 2.39765,3.59645 -0.52907,-0.92566 1.96825,3.44441 0.29363,0.5132 0.62959,1.00311 0.98413,1.47616 0.13954,0.18583 0.3882,0.28437 0.49203,0.49203 0.0734,0.14682 -0.14682,0.41862 0,0.49203 0.29363,0.14682 0.71113,-0.18187 0.98406,0 0.30487,0.20369 0.30355,0.66966 0.49203,0.98413 0.30421,0.50724 0.61437,1.01441 0.98412,1.47622 0.28967,0.36241 0.74546,0.5866 0.98413,0.98413 0.26652,0.44507 0.29958,0.99457 0.49203,1.47616 0.40738,1.01805 1.06898,1.93432 1.47623,2.95238 0.19244,0.48144 0.2599,1.0123 0.49203,1.47615 0.42788,0.85543 1.04847,1.60492 1.47622,2.46035 0.23213,0.46426 0.32802,0.98413 0.49203,1.47616 0.7059,2.11778 0.36638,0.97302 0.98413,3.44448 0.16401,0.65604 0.27842,1.32663 0.49203,1.96825 1.18801,3.56418 -0.14219,-0.77581 0.98412,1.47616 0.23213,0.46425 0.29959,0.99457 0.49203,1.47616 0.13624,0.34058 0.3763,0.6362 0.49203,0.98412 0.21361,0.64149 0.18981,1.3634 0.49203,1.96826 1.60208,3.20415 0.49336,-0.98089 1.47616,1.96825 0.0979,0.29363 -0.12962,0.91918 0,0.98413 0.29363,0.14681 0.67297,-0.10383 0.98413,0 0.56544,0.18848 0.68269,1.17479 0.98413,1.47622 0.25924,0.25924 0.67898,0.28834 0.98412,0.49203 0.19311,0.12896 0.28437,0.3882 0.49203,0.49203 0.14682,0.0734 0.3558,-0.0906 0.49203,0 0.38622,0.25726 0.65604,0.65604 0.98413,0.98413 0.49203,0.16401 1.0123,0.2599 1.47622,0.49203 0.20766,0.10383 0.29892,0.36307 0.49203,0.49203 0.30488,0.20369 0.67899,0.289 0.98413,0.49203 0.19311,0.12896 0.27181,0.41862 0.49203,0.49203 0.31149,0.10383 0.67297,-0.10383 0.98413,0 1.82415,0.60776 -0.59983,0.49203 0.98412,0.49203 0.32802,0 0.65604,0 0.98413,0 0.16401,0 0.41862,-0.14682 0.49203,0 0.14682,0.29363 -0.14681,0.69069 0,0.98413 0.0734,0.14681 0.32802,0 0.49203,0 0.51716,0 1.97203,-0.0979 2.46035,0 0.50857,0.10184 0.9627,0.41862 1.47616,0.49203 0.64943,0.0926 1.31215,0 1.96825,0 0.49203,0 0.98413,0 1.47616,0 0.49203,0 0.99087,-0.0807 1.47622,0 0.51187,0.0853 0.9676,0.39018 1.47616,0.49203 0.48277,0.0965 0.98413,0 1.47622,0 1.31215,0 2.6243,0 3.93651,0 0.58792,0 2.63117,0.10713 2.95232,0 1.96825,-0.65604 -0.0992,-0.47219 2.46035,-0.98413 0.3214,-0.0661 0.69069,0.14682 0.98412,0 0.41466,-0.20766 0.56941,-0.77667 0.98413,-0.98413 0.29363,-0.14681 0.69069,0.14682 0.98413,0 0.14681,-0.0734 -0.14682,-0.41862 0,-0.49203 0.29363,-0.14681 0.6729,0.10383 0.98412,0 0.97917,-0.32669 0.22949,-0.45896 0.49203,-0.98412 0.5251,-1.04993 0.45897,0.0661 0.98413,-0.98413 0.0747,-0.14946 0,-1.25455 0,-1.47616 0,-0.58131 0.0972,-2.65974 0,-2.95238 -0.0734,-0.22022 -0.3882,-0.28437 -0.49203,-0.49203 -0.0734,-0.14681 0.0734,-0.34521 0,-0.49203 -0.54428,-1.08796 -0.30553,-0.15277 -0.98413,-0.49203 -0.20765,-0.10383 -0.32802,-0.32802 -0.49203,-0.49203 -0.32802,-0.32802 -0.61305,-0.70577 -0.98412,-0.98413 -0.29363,-0.22022 -0.65604,-0.32802 -0.98413,-0.49203 -0.65604,-0.32802 -1.33926,-0.6071 -1.96825,-0.98412 -1.63197,-1.63197 0.46425,0.23212 -0.98413,-0.49203 -0.20766,-0.10383 -0.28437,-0.38821 -0.49203,-0.49203 -0.14682,-0.0734 -0.33662,0.0529 -0.49203,0 -0.34786,-0.11574 -0.64348,-0.3558 -0.98413,-0.49204 -0.48145,-0.19244 -1.01223,-0.2599 -1.47616,-0.49203 -0.52906,-0.26453 -0.96904,-0.67984 -1.47615,-0.98412 -0.93453,-0.56081 -2.04616,-0.87203 -2.95238,-1.47616 -0.19311,-0.12896 -0.29893,-0.36373 -0.49203,-0.49203 -0.30488,-0.20369 -0.65604,-0.32802 -0.98413,-0.49203 -0.32802,-0.16401 -0.64348,-0.3558 -0.98413,-0.49203 -0.48145,-0.19245 -1.06124,-0.18054 -1.47615,-0.49203 -0.29364,-0.22022 -0.23279,-0.72482 -0.49204,-0.98413 -0.11573,-0.11573 -0.34521,0.0734 -0.49203,0 -0.41465,-0.20766 -0.5694,-0.77667 -0.98412,-0.98412 -0.46426,-0.23213 -1.02586,-0.23478 -1.47616,-0.49204 -0.71205,-0.40671 -1.3009,-0.99946 -1.96825,-1.47615 -0.48145,-0.34389 -1.02189,-0.60578 -1.47623,-0.98413 -0.53435,-0.44574 -0.9328,-1.04146 -1.47615,-1.47622 -0.28636,-0.22882 -0.69076,-0.27181 -0.98413,-0.49203 -0.37101,-0.27842 -0.61305,-0.70578 -0.98413,-0.98413 -0.29363,-0.22022 -0.69069,-0.27181 -0.98412,-0.49203 -0.74228,-0.55684 -1.25548,-1.37431 -1.96826,-1.96825 -0.63025,-0.5251 -1.28589,-1.0213 -1.96825,-1.47623 -0.61041,-0.40672 -1.35791,-0.57734 -1.96826,-0.98412 -0.1931,-0.12896 -0.32802,-0.32802 -0.49203,-0.49203 -0.32802,-0.32802 -0.74545,-0.5866 -0.98412,-0.98413 -0.26652,-0.44508 -0.32802,-0.98413 -0.49203,-1.47622 -0.16401,-0.49203 -0.32802,-0.98413 -0.49203,-1.47616 -0.16401,-0.49203 -0.25991,-1.01224 -0.49203,-1.47616 -0.26454,-0.52906 -0.79711,-0.91515 -0.98413,-1.47622 -0.15541,-0.4669 0.13491,-1.00304 0,-1.47616 -0.20171,-0.70531 -0.72654,-1.28146 -0.98413,-1.96825 -0.23742,-0.63356 -0.27842,-1.3267 -0.49203,-1.96826 -0.27908,-0.83797 -0.73031,-1.61431 -0.98412,-2.46028 -0.24007,-0.80107 -0.31083,-1.64394 -0.49204,-2.46035 -0.14681,-0.66001 -0.38092,-1.30117 -0.49203,-1.96825 -0.0529,-0.3234 0,-0.65605 0,-0.98413 0,-1.14814 0,-2.29628 0,-3.44441 0,-0.16798 -0.0886,-1.70194 0,-1.96826 0.11574,-0.34786 0.3763,-0.6362 0.49203,-0.98412 0.0529,-0.15542 -0.0913,-0.3558 0,-0.49203 0.25726,-0.38622 0.74539,-0.5866 0.98413,-0.98413 0.26652,-0.44508 0.2599,-1.0123 0.49203,-1.47622 0.26453,-0.52907 0.67985,-0.96905 0.98413,-1.47616 0.18848,-0.31479 0.23279,-0.72482 0.49203,-0.98413 0.41796,-0.41796 1.1068,-0.52245 1.47622,-0.98412 0.32405,-0.40474 0.25991,-1.0123 0.49203,-1.47623 0.10383,-0.20766 0.36374,-0.29892 0.49203,-0.49203 0.20369,-0.30487 0.26321,-0.6977 0.49203,-0.98413 0.4345,-0.54361 0.98413,-0.98412 1.47623,-1.47615 0.82005,-0.82012 1.64016,-1.64024 2.46028,-2.46035 0.32802,-0.32802 0.70577,-0.61306 0.98413,-0.98413 0.22022,-0.29363 0.18715,-0.78063 0.49203,-0.98413 0.27313,-0.18186 0.6729,0.10383 0.98406,0 0.22022,-0.0734 0.32802,-0.32802 0.49203,-0.49203 0.0132,-0.0132 1.76952,-1.86885 1.96825,-1.96825 0.29363,-0.14682 0.83738,0.29363 0.98413,0 0.14682,-0.29363 -0.23213,-0.7522 0,-0.98413 0.2361,-0.23609 3.42616,-0.97864 3.44441,-0.98412 5.0082,-1.50248 0.90153,-0.7278 6.88889,-1.47616 1.31215,-0.16401 2.6274,-0.30487 3.93651,-0.49203 0.98763,-0.14087 1.9576,-0.41532 2.95231,-0.49203 1.14476,-0.088 2.29971,0.088 3.44448,0 0.99477,-0.0767 1.96078,-0.38159 2.95238,-0.49203 0.97811,-0.10846 1.96825,0 2.95238,0 0.65604,0 1.31717,-0.0813 1.96819,0 1.3421,0.16798 2.61616,0.69076 3.9365,0.98412 0.81642,0.18121 1.65928,0.25197 2.46035,0.49203 0.84598,0.25396 1.62232,0.70479 2.46029,0.98413 1.28311,0.42788 2.636,0.61239 3.93651,0.98413 0.49864,0.14218 0.96759,0.39018 1.47615,0.49203 0.32141,0.0661 0.65604,0 0.98413,0 0.16401,0 0.34521,-0.0734 0.49203,0 0.20766,0.10383 0.28437,0.3882 0.49203,0.49203 0.14682,0.0734 0.32802,0 0.49203,0 0.32802,0.32802 0.61305,0.70577 0.98413,0.98413 0.5866,0.44044 1.44957,0.46557 1.96819,0.98412 0.25924,0.25924 0.28834,0.67899 0.49203,0.98413 0.12896,0.19311 0.3882,0.28437 0.49203,0.49203 0.0734,0.14682 -0.0734,0.34522 0,0.49203 0.10382,0.20766 0.3882,0.28437 0.49203,0.49203 0.0734,0.14682 -0.0397,0.33265 0,0.49203 0.12565,0.50327 0.29958,0.99464 0.49203,1.47622 0.52509,1.31215 0.65802,0.82832 0.98412,2.46029 0.0661,0.32141 0,0.65604 0,0.98413 0,0.16401 -0.0734,0.34521 0,0.49203 0.10383,0.20765 0.41863,0.2718 0.49203,0.49203 0.0747,0.22485 -0.10978,1.74928 0,1.96825 0.10383,0.20766 0.41863,0.27181 0.49203,0.49203 0.10383,0.31149 0,0.65604 0,0.98413 0,0.32802 0,0.65604 0,0.98412 0,0.53899 0.0529,1.94346 0,1.96826 -0.29363,0.14681 -0.71113,-0.18187 -0.98412,0 -0.30488,0.20369 -0.28834,0.67899 -0.49203,0.98412 -0.12896,0.19311 -0.28438,0.38821 -0.49203,0.49203 -0.14682,0.0734 -0.41863,-0.14681 -0.49203,0 -0.46955,0.93883 0.56411,0.94822 -0.49203,1.47616 -0.21031,0.10515 -2.26579,0 -2.46029,0 -1.96825,0 -3.93651,0 -5.90476,0 -4.5948,0 -1.30229,0.19311 -5.41266,-0.49203 -1.14404,-0.19046 -2.31433,-0.23146 -3.44441,-0.49203 -1.01078,-0.23345 -1.94161,-0.75087 -2.95239,-0.98413 -1.13008,-0.26056 -2.30718,-0.26453 -3.44441,-0.49203 -1.3263,-0.26519 -2.6186,-0.68004 -3.9365,-0.98412 -1.62985,-0.3763 -3.27492,-0.68494 -4.92064,-0.98413 -0.98161,-0.17856 -1.95813,-0.40936 -2.95238,-0.49203 -0.98069,-0.082 -1.96825,0 -2.95238,0 -1.31215,0 -2.62429,0 -3.93651,0 -0.98406,0 -1.96818,0 -2.95231,0 -0.32802,0 -0.66246,-0.0661 -0.98413,0 -1.01726,0.20369 -1.93518,0.7807 -2.95238,0.98413 -0.19046,0.0397 -1.88731,-0.0397 -1.96825,0 -0.14682,0.0734 0,0.32802 0,0.49203 0,0.11705 -0.0529,1.85794 0,1.96825 0.10383,0.20766 0.36373,0.29892 0.49203,0.49203 0.20369,0.30488 0.28834,0.67899 0.49203,0.98413 0.12896,0.19311 0.41862,0.27181 0.49203,0.49203 0.10383,0.31149 -0.10383,0.67297 0,0.98413 0.0734,0.22022 0.32802,0.32802 0.49203,0.49203 0.49203,0.49203 0.89716,1.0902 1.47616,1.47615 0.13623,0.0913 0.34521,-0.0734 0.49203,0 0.20765,0.10383 0.32802,0.32802 0.49203,0.49203 0.5489,0.54891 1.97414,2.13617 2.46035,2.46029 0.61041,0.40672 1.33132,0.62033 1.96819,0.98412 3.37166,1.92666 -0.12632,0.0265 2.46035,1.96826 0.5866,0.44044 1.35791,0.57734 1.96825,0.98412 0.19311,0.12896 0.32802,0.32803 0.49203,0.49204 0.65604,0.32802 1.3462,0.59519 1.96825,0.98412 6.78149,4.23841 -3.76006,-1.76648 4.42854,3.44448 0.92831,0.59057 2.0369,0.86581 2.95238,1.47616 0.57867,0.38621 0.94782,1.02334 1.47622,1.47622 0.62298,0.53369 1.31215,0.98413 1.96826,1.47616 1.31215,0.98412 2.60181,1.999 3.93644,2.95238 0.48145,0.34389 1.1068,0.52245 1.47622,0.98412 0.32406,0.40474 0.12499,1.10945 0.49203,1.47616 0.51849,0.51849 1.38146,0.54428 1.96826,0.98413 1.11341,0.83506 1.96825,1.96825 2.95238,2.95238 0.65604,0.65604 1.31214,1.31215 1.96825,1.96825 0.65604,0.65604 1.39858,1.23583 1.96826,1.96826 0.58726,0.75491 0.96269,1.65346 1.47615,2.46028 0.63488,0.99788 1.31222,1.96825 1.96826,2.95238 0.82011,1.14814 1.6973,2.25759 2.46035,3.44441 0.71503,1.11236 1.25315,2.33212 1.96825,3.44448 0.20766,0.32339 3.64003,4.71893 3.93644,5.90476 0.0794,0.3181 -0.10383,0.6729 0,0.98406 0.0734,0.22022 0.3882,0.28437 0.49203,0.49203 0.0747,0.14946 0,1.25461 0,1.47616 0,0.98413 0,1.96825 0,2.95238 0,0.32802 0,0.65604 0,0.98413 0,0.16401 0.11573,0.37629 0,0.49203 -0.11573,0.11573 -0.41862,-0.14682 -0.49203,0 -0.14681,0.29363 0.10383,0.6729 0,0.98412 -0.0734,0.22023 -0.36307,0.29892 -0.49203,0.49203 -0.20369,0.30554 -0.27181,0.6907 -0.49203,0.98413 -0.27842,0.37101 -0.65604,0.65604 -0.98413,0.98413 -0.49203,0.49203 -0.98412,0.98412 -1.47615,1.47615 -0.82012,0.82012 -1.64024,1.64024 -2.46029,2.46035 -0.49203,0.49203 -0.9416,1.03069 -1.47622,1.47616 -1.3552,1.12936 -3.07334,1.82309 -4.42854,2.95238 -0.53435,0.44574 -0.9416,1.03069 -1.47622,1.47623 -0.45434,0.37828 -1.02182,0.60577 -1.47616,0.98406 -0.53435,0.44573 -0.98413,0.98412 -1.47616,1.47622 -0.32802,0.32802 -0.5866,0.74545 -0.98412,0.98413 -0.44508,0.26651 -1.03148,0.22485 -1.47623,0.49203 -0.39746,0.23874 -0.60644,0.7145 -0.98412,0.98412 -0.77826,0.55618 -1.64017,0.98413 -2.46029,1.47623 -3.4038,2.04225 -1.60492,1.04847 -5.41266,2.95238 -0.65604,0.32802 -1.31222,0.65604 -1.96826,0.98412 -0.65604,0.32802 -1.28146,0.72654 -1.96825,0.98407 -0.63355,0.23741 -1.30514,0.3591 -1.96825,0.49203 -0.61504,0.123 -0.73812,-0.24602 -1.47616,0 -0.22022,0.0734 -0.27181,0.41862 -0.49203,0.49203 -0.31149,0.10382 -0.65604,0 -0.98413,0 -0.65604,0 -1.31214,0 -1.96825,0 -2.29628,0 -4.59255,0 -6.88882,0 -1.47623,0 -2.95238,0 -4.42861,0 -0.82011,0 -1.64519,0.0906 -2.46028,0 -0.006,-6.7e-4 -3.90476,-0.97705 -3.93651,-0.98413 -0.81641,-0.18121 -1.66688,-0.2275 -2.46028,-0.49203 -0.69592,-0.23213 -1.28146,-0.72654 -1.96826,-0.98413 -1.79227,-0.67211 -4.11248,-0.80404 -5.90476,-1.47616 -1.03022,-0.38621 -1.90853,-1.12829 -2.95238,-1.47622 -0.64149,-0.21361 -1.36333,-0.1898 -1.96825,-0.49203 -0.41466,-0.20766 -0.5866,-0.74545 -0.98413,-0.98413 -0.44507,-0.26651 -0.99457,-0.29958 -1.47616,-0.49203 -0.68103,-0.27246 -1.2724,-0.75213 -1.96825,-0.98412 -0.15541,-0.0529 -0.41862,0.14681 -0.49203,0 -0.14682,-0.29363 0.18187,-0.71113 0,-0.98413 -0.20369,-0.30487 -0.69076,-0.27181 -0.98413,-0.49203 -0.371,-0.27842 -0.69433,-0.62165 -0.98412,-0.98413 -1.19886,-1.49851 -0.95807,-1.67654 -1.96826,-3.44441 -0.29363,-0.51319 -0.71966,-0.94729 -0.98412,-1.47622 -0.59454,-1.1896 -0.51121,-2.18319 -0.98413,-3.44441 -0.25726,-0.68686 -0.71173,-1.28722 -0.98413,-1.96826 -0.38555,-0.96316 -0.65604,-1.96825 -0.98412,-2.95238 -0.16402,-0.49203 -0.40672,-0.96455 -0.49204,-1.47615 -0.0807,-0.48542 0.0807,-0.99088 0,-1.47623 -0.41597,-2.49427 -0.50459,-0.52377 -1.47615,-2.95238 -0.12169,-0.30421 0.12168,-0.67952 0,-0.98412 -0.21956,-0.54891 -0.7645,-0.92706 -0.98413,-1.47616 -0.12168,-0.30488 0,-0.65604 0,-0.98413 0,-0.65604 0.17988,-1.33741 0,-1.96825 -0.16269,-0.56875 -0.7645,-0.92712 -0.98413,-1.47616 -0.12168,-0.30487 0.16864,-0.70286 0,-0.98413 -0.35778,-0.59652 -1.03068,-0.9416 -1.47615,-1.47622 -1.6778,-2.01329 -0.36374,-1.03803 -1.96826,-3.44441 -0.25725,-0.38622 -0.74545,-0.5866 -0.98412,-0.98413 -0.26652,-0.44507 -0.32802,-0.98412 -0.49203,-1.47615 -0.32802,-0.65605 -0.57735,-1.35792 -0.98413,-1.96826 -0.25726,-0.38622 -0.69427,-0.62165 -0.98413,-0.98413 -0.73884,-0.92361 -1.22935,-2.02876 -1.96819,-2.95238 -1.28939,-1.61173 -0.90661,-0.60445 -2.95238,-1.96825 -1.12393,-0.74929 -0.87117,-0.95986 -1.47622,-1.96825 -0.60842,-1.01422 -1.38139,-1.9254 -1.96825,-2.95238 -0.36374,-0.63687 -0.65604,-1.31215 -0.98413,-1.96826 -2.23999,-4.47999 -0.0264,0.17592 -1.47616,-3.44441 -0.13623,-0.34058 -0.35579,-0.64347 -0.49203,-0.98413 -0.19244,-0.48144 -0.2599,-1.01223 -0.49203,-1.47615 -0.26453,-0.52907 -0.71966,-0.94729 -0.98412,-1.47623 -0.23213,-0.46425 -0.25991,-1.01223 -0.49204,-1.47615 -0.56147,-1.12294 -1.10799,-1.3556 -1.47622,-2.46035 -0.0529,-0.15542 0.0529,-0.33662 0,-0.49203 -0.11573,-0.34786 -0.40275,-0.62827 -0.49203,-0.98413 -0.56279,-2.25197 0.99392,0.51187 -0.49203,-2.46028 -0.10383,-0.20766 -0.41862,-0.27181 -0.49203,-0.49203 -0.10383,-0.31149 0,-0.65605 0,-0.98413 0,-0.16401 0.0734,-0.34522 0,-0.49203 -0.10383,-0.20766 -0.3882,-0.28437 -0.49203,-0.49203 -0.0734,-0.14682 0.11573,-0.3763 0,-0.49203 -0.99557,-0.99557 -1.41247,-0.14285 -2.46028,-0.49203 -0.22023,-0.0734 -0.28438,-0.3882 -0.49203,-0.49203 -0.1951,-0.0972 -1.37557,0.10052 -1.47616,0 -0.11573,-0.11574 0.11573,-0.3763 0,-0.49203 -0.11573,-0.11574 -0.34522,0.0734 -0.49203,0 -0.20766,-0.10383 -0.27181,-0.41863 -0.49203,-0.49203 -1.47616,-0.49203 -0.49203,0.24601 -1.47616,0 -0.50327,-0.12566 -0.96462,-0.40672 -1.47622,-0.49203 -0.80894,-0.13492 -1.64017,0 -2.46029,0 -2.49355,0 0.5866,-0.14682 -1.96825,0.49203 -0.3181,0.0794 -0.66589,-0.0794 -0.98413,0 -0.35579,0.0886 -0.62826,0.40275 -0.98412,0.49203 -1.03942,0.2599 -1.03896,-0.43714 -1.96826,0.49203 -0.41796,0.41796 -0.52972,1.09754 -0.98412,1.47615 -0.56346,0.46955 -1.33927,0.60644 -1.96826,0.98413 -1.01422,0.60843 -1.9545,1.33324 -2.95238,1.96825 -1.79717,1.14364 -3.70273,2.16196 -5.41266,3.44442 -0.55684,0.4173 -0.98413,0.98412 -1.476162,1.47622 -0.32802,0.32802 -0.69433,0.62165 -0.98413,0.98413 -0.36968,0.4616 -0.61437,1.01434 -0.98412,1.47615 -0.28967,0.36241 -0.72681,0.59785 -0.98413,0.98413 -0.0913,0.13623 0.14681,0.41862 0,0.49203 -0.29363,0.14682 -0.7522,-0.23213 -0.98413,0 -0.23213,0.23213 0.14682,0.69069 0,0.98413 -0.20766,0.41465 -0.7268,0.59784 -0.98413,0.98412 -0.0913,0.13624 0.0397,0.33265 0,0.49203 -0.12565,0.50328 -0.20435,1.04464 -0.49203,1.47616 -3.56907,5.35367 0.26189,-2.50241 -1.96818,3.44448 -0.25726,0.68679 -0.65604,1.31215 -0.98413,1.96825 -0.16401,0.32802 -0.39151,0.63157 -0.49203,0.98413 -0.22948,0.80411 -0.26255,1.6561 -0.49203,2.46028 -0.10052,0.35249 -0.40341,0.62827 -0.49203,0.98413 -0.0794,0.3181 0,0.65604 0,0.98413 0,0.32802 0,0.65604 0,0.98412 0,0.32802 0,0.65604 0,0.98413 0,0.16401 -0.0397,0.33265 0,0.49203 0.54427,2.17598 0.30553,0.76351 0.98413,2.46035 0.19244,0.48145 0.1812,1.06124 0.49203,1.47616 0.22022,0.29363 0.72475,0.23279 0.98412,0.49203 0.11574,0.11573 -0.0529,0.33662 0,0.49203 0.11574,0.34786 0.28834,0.67899 0.49203,0.98413 0.12896,0.1931 0.32802,0.32802 0.49203,0.49203 0.32802,0.32802 0.65604,0.65604 0.98413,0.98412 0.38423,0.38424 1.05158,1.19318 1.47622,1.47623 0.30488,0.20369 0.67893,0.28834 0.98413,0.49203 0.19311,0.12896 0.28437,0.3882 0.49203,0.49203 0.99239,0.496 1.60042,0.33926 2.46035,0.98412 0.37101,0.27842 0.597842,0.72681 0.984132,0.98413 0.13623,0.0913 0.34521,-0.0734 0.49203,0 0.20766,0.10383 0.29892,0.36373 0.49203,0.49203 0.30487,0.20369 0.72475,0.23279 0.98413,0.49203 0.11573,0.11573 -0.14682,0.41862 0,0.49203 0.29363,0.14682 0.69069,-0.14681 0.98406,0 0.14681,0.0734 -0.11574,0.3763 0,0.49203 2.51464,2.51458 -0.68627,-2.06322 1.96825,1.47616 0.35976,0.47946 0.38225,1.17518 0.98413,1.47616 0.14681,0.0734 0.37629,-0.11574 0.49203,0 0.11573,0.11573 -0.14682,0.41862 0,0.49203 0.29363,0.14681 0.69069,-0.14682 0.98412,0 0.14682,0.0734 -0.11573,0.37629 0,0.49203 0.11574,0.11573 0.34522,-0.0734 0.49203,0 0.20766,0.10383 0.28438,0.3882 0.49203,0.49203 0.14682,0.0734 0.3763,-0.11574 0.49204,0 0.11573,0.11573 -0.14682,0.41862 0,0.49203 0.29363,0.14681 0.75219,-0.23213 0.98412,0 0.23213,0.23212 -0.23213,0.7522 0,0.98412 0.23213,0.23213 0.67291,-0.10382 0.98413,0 0.22022,0.0734 0.28437,0.38821 0.49203,0.49203 0.14681,0.0734 0.34521,-0.0734 0.49203,0 0.20766,0.10383 0.28437,0.38821 0.49203,0.49204 0.29363,0.14681 0.83738,-0.29364 0.98406,0 0.14682,0.29363 -0.14681,0.69076 0,0.98412 0.0397,0.0813 1.34528,0 1.47622,0 1.31215,0 -0.16401,-0.16401 0.49203,0.49203 0.11574,0.11574 0.32802,0 0.49203,0 0.57536,0 1.42121,0.10912 1.96826,0 0.66312,-0.13293 1.31215,-0.32802 3.93651,-0.49203 z"
       id="path2931"
       inkscape:export-filename="/Users/andre/Desktop/scrooby_logo.png"
       inkscape:export-xdpi="89.93"
       inkscape:export-ydpi="89.93" />
    <path
       style="fill:none;stroke:#000000;stroke-width:7;stroke-linecap:butt;stroke-linejoin:miter;stroke-miterlimit:4;stroke-opacity:1;stroke-dasharray:none"
       d="m 171.59076,734.00892 c 0,-2.20695 -0.43282,-4.45677 0,-6.62087 0.3226,-1.61302 1.80799,-2.81805 2.20695,-4.41391 0.35684,-1.42737 -0.35684,-2.98653 0,-4.41391 0.39896,-1.59585 1.88435,-2.80088 2.20696,-4.41391 0.43282,-2.16409 -0.31211,-4.43609 0,-6.62086 0.42895,-3.00269 1.83073,-5.81807 2.20695,-8.82782 0.36499,-2.91988 -0.41615,-5.91479 0,-8.82782 0.32899,-2.30295 1.82451,-4.32618 2.20696,-6.62087 0.36282,-2.17692 0,-4.41391 0,-6.62086 0,-5.88521 0,-11.77043 0,-17.65564 0,-6.62087 0,-13.24173 0,-19.8626 0,-2.31872 0.43801,-8.8447 0,-11.03477 -0.45624,-2.28116 -1.47131,-4.41391 -2.20696,-6.62087 -0.73565,-2.20695 -1.4713,-4.41391 -2.20695,-6.62086 -0.73566,-2.20696 -1.64274,-4.36399 -2.20696,-6.62087 -0.17842,-0.71368 0.65799,-1.87796 0,-2.20695 -1.31597,-0.65799 -3.37354,1.04037 -4.41391,0 -2.20695,-2.20696 1.10348,-4.41391 0,-6.62087 -0.46527,-0.93053 -1.74169,-1.27642 -2.20695,-2.20695 -0.65108,-1.30215 0.506,-5.10285 0,-6.62087 -0.53761,-1.61282 -2.39384,-5.61083 -4.41391,-6.62086 -0.65799,-0.329 -2.20696,0.73565 -2.20696,0 0,-1.04037 1.27642,-1.74169 2.20696,-2.20696 0.46032,-0.23016 11.03386,-2.3e-4 11.03477,0 1.59585,0.39897 3.04522,1.29449 4.41391,2.20696 4.03815,2.69209 0.22018,2.81374 6.62087,4.41391 5.23823,-1.9484 4.32259,2.18023 8.82782,2.20695 0.52018,0.52019 -0.52019,1.68677 0,2.20696 1.04036,1.04037 3.75592,-1.31598 4.41391,0 0.65798,1.31597 -0.81614,3.18971 0,4.41391 0.91246,1.36869 3.04521,1.29449 4.41391,2.20695 0.86564,0.57709 1.34131,1.62986 2.20695,2.20696 2.73739,1.82492 6.09043,2.58898 8.82782,4.41391 0.86564,0.57709 1.34132,1.62986 2.20696,2.20695 1.36869,0.91247 3.25074,1.04379 4.41391,2.20696 0.52018,0.52018 -0.329,1.54897 0,2.20695 1.01154,2.02309 8.34854,6.23745 8.82782,6.62087 9.54572,9.54572 -0.58465,0.34588 8.82782,6.62086 0.86564,0.5771 1.27642,1.74169 2.20695,2.20696 0.65799,0.32899 1.68677,-0.52019 2.20696,0 0.52018,0.52018 -0.65799,1.87796 0,2.20695 2.19555,1.09778 6.18428,-0.87316 6.62086,0 0.65799,1.31598 -0.81613,3.18971 0,4.41391 0.91247,1.3687 3.04522,1.29449 4.41391,2.20696 0.86564,0.57709 1.27642,1.74169 2.20696,2.20695 1.31597,0.65799 3.75592,-1.31597 4.41391,0 0.65798,1.31598 -0.46527,3.01811 0,4.41391 0.32899,0.98698 1.4713,1.47131 2.20695,2.20696 1.47131,1.4713 2.94261,2.9426 4.41391,4.41391 0.73565,0.73565 1.47131,1.4713 2.20696,2.20695 0.73565,0.73566 1.27642,1.74169 2.20695,2.20696 3.9068,1.9534 0.75414,-3.28271 4.41391,2.20695 0.91247,1.3687 1.29449,3.04522 2.20696,4.41391 1.73128,2.59692 4.88959,4.02395 6.62086,6.62087 0.40807,0.6121 -0.65798,1.87796 0,2.20695 1.31598,0.65799 3.37354,-1.04036 4.41391,0 1.04037,1.04037 -0.65798,3.09794 0,4.41391 0.93054,1.86107 3.16547,2.74932 4.41391,4.41391 0.98698,1.31598 1.29449,3.04522 2.20696,4.41391 -0.2203,4.37211 3.25074,1.04379 4.41391,2.20696 1.16317,1.16317 1.29449,3.04521 2.20695,4.41391 0.5771,0.86564 1.62987,1.34132 2.20696,2.20695 0.91246,1.3687 1.04379,3.25075 2.20695,4.41391 0.52019,0.52019 1.87797,-0.65798 2.20696,0 0.65799,1.31598 -1.04037,3.37355 0,4.41391 1.04037,1.04037 3.09793,-0.65798 4.41391,0 1.31597,0.65799 -1.31598,3.75593 0,4.41391 1.31597,0.65799 3.09793,-0.65798 4.41391,0 0.65799,0.329 0,1.47131 0,2.20696 0,1.4713 -0.46527,3.01811 0,4.41391 0.32899,0.98698 1.74169,1.27642 2.20695,2.20695 0.329,0.65799 -0.32899,1.54897 0,2.20696 0.46527,0.93053 1.74169,1.27642 2.20696,2.20695 0.32899,0.65799 -0.52019,1.68678 0,2.20696 0.52018,0.52018 1.87796,-0.65799 2.20695,0 0.69356,1.38712 -0.69356,7.4407 0,8.82782 0.46527,0.93053 1.74169,1.27642 2.20696,2.20696 0.65799,1.31597 -0.65799,3.09793 0,4.41391 0.46527,0.93053 1.74169,1.27642 2.20695,2.20695 0.329,0.65799 0,1.4713 0,2.20696 0,0.73565 0,1.4713 0,2.20695"
       id="path2933"
       sodipodi:nodetypes="csssssssssssssssssssssssssccssssssssscssssssssssssssssssssscsssssssssssssssssssssc"
       inkscape:export-filename="/Users/andre/Desktop/scrooby_logo.png"
       inkscape:export-xdpi="89.93"
       inkscape:export-ydpi="89.93" />
    <path
       style="fill:none;stroke:#000000;stroke-width:5;stroke-linecap:butt;stroke-linejoin:miter;stroke-opacity:1;stroke-miterlimit:4;stroke-dasharray:none"
       d="m 261.52417,776.4928 c -8.49486,0 0.46124,0.21165 -7.1726,-0.55174 -0.732,-0.0732 -1.4713,0 -2.20696,0 -0.55173,0 -1.10347,0 -1.65521,0 -0.18391,0 -0.42169,-0.13004 -0.55174,0 -0.27587,0.27587 0.27587,1.37935 0,1.65522 -0.13005,0.13005 -0.46949,-0.1645 -0.55174,0 -0.1645,0.32899 0,0.73565 0,1.10348 0,1.10347 0,2.20695 0,3.31043 0,0.24848 0.084,1.4873 0,1.65522 -0.11632,0.23263 -0.43542,0.3191 -0.55174,0.55173 -0.0823,0.1645 0.13005,0.4217 0,0.55174 -0.13004,0.13005 -0.42169,-0.13004 -0.55174,0 -0.025,0.025 0,2.49855 0,2.7587 0,1.4713 0,2.9426 0,4.41391 0,0.28851 -0.0725,2.06188 0,2.20695 0.11632,0.23264 0.43543,0.31911 0.55174,0.55174 0.67945,1.35891 -1.60155,-0.49807 0.55174,1.65522 0.13005,0.13004 0.42169,-0.13005 0.55174,0 0.13005,0.13004 -0.0822,0.38724 0,0.55174 0.11632,0.23263 0.36783,0.36782 0.55174,0.55173 0.18391,0.18392 0.36782,0.36783 0.55174,0.55174 0.18391,0.18392 0.36782,0.36783 0.55174,0.55174 0.18391,0.18391 0.43542,0.31911 0.55173,0.55174 0.0822,0.1645 -0.16449,0.46949 0,0.55174 0.329,0.1645 0.77449,-0.1645 1.10348,0 0.1645,0.0822 -0.0822,0.38724 0,0.55174 0.11632,0.23263 0.36783,0.36782 0.55174,0.55174 0.63127,0.63127 0.65313,0.76945 1.65522,1.10347 0.17447,0.0582 0.38724,-0.0822 0.55174,0 0.23263,0.11632 0.30499,0.46949 0.55173,0.55174 0.34895,0.11632 0.73566,0 1.10348,0 0.18391,0 0.38724,-0.0823 0.55174,0 0.23263,0.11632 0.31911,0.43543 0.55174,0.55174 0.1645,0.0822 0.38724,-0.0823 0.55174,0 0.23263,0.11632 0.3191,0.43542 0.55174,0.55174 0.16449,0.0822 0.36782,0 0.55174,0 0.36782,0 0.73565,0 1.10347,0 1.28739,0 2.57478,0 3.86217,0 1.83913,0 1.65522,0.55174 1.65522,-0.55174"
       id="path3711"
       inkscape:export-filename="/Users/andre/Desktop/scrooby_logo.png"
       inkscape:export-xdpi="89.93"
       inkscape:export-ydpi="89.93" />
    <path
       style="fill:none;stroke:#000000;stroke-width:5;stroke-linecap:butt;stroke-linejoin:miter;stroke-miterlimit:4;stroke-opacity:1;stroke-dasharray:none"
       d="m 273.38677,783.11367 c 0.18391,1.65521 0.44785,3.30349 0.55174,4.96565 0.0803,1.28488 0,2.57478 0,3.86217 0,3.31043 0,6.62086 0,9.93129 0,1.10348 0,2.20696 0,3.31044 0,0.18391 0.13004,0.42169 0,0.55174 -0.13005,0.13004 -0.46949,0.16449 -0.55174,0 -0.33912,-0.67824 -0.38724,-1.46672 -0.55174,-2.20696 -0.45183,-2.03324 -0.65165,-4.03588 -1.10348,-6.06913 -0.12616,-0.56773 -0.46949,-1.07947 -0.55174,-1.65521 -0.10403,-0.72826 0,-1.47131 0,-2.20696 0,-0.55174 0,-1.10347 0,-1.65521 0,-1.47131 0,-2.94261 0,-4.41391 0,-0.24848 -0.0839,-1.48731 0,-1.65522 0.11632,-0.23263 0.46949,-0.30499 0.55174,-0.55174 0.11632,-0.34895 0,-0.73565 0,-1.10348 0,-0.18391 -0.16449,-0.46949 0,-0.55173 0.329,-0.1645 0.77449,0.16449 1.10348,0 0.1645,-0.0822 -0.13005,-0.4217 0,-0.55174 0.26009,-0.2601 0.77448,0.16449 1.10348,0 2.52509,-1.26255 -2.34126,0.22868 1.65521,-1.10348 0.17448,-0.0582 0.4217,0.13005 0.55174,0 0.13005,-0.13005 -0.13004,-0.42169 0,-0.55174 0.13005,-0.13005 0.4217,0.13005 0.55174,0 0.13005,-0.13005 -0.13004,-0.42169 0,-0.55174 0.13005,-0.13004 0.42169,0.13005 0.55174,0 0.13005,-0.13004 -0.13005,-0.42169 0,-0.55174 0.13005,-0.13004 0.42169,0.13005 0.55174,0 0.13004,-0.13004 -0.13005,-0.42169 0,-0.55174 0.13004,-0.13004 0.42169,0.13005 0.55174,0 0.13004,-0.13004 -0.13005,-0.42169 0,-0.55173 0.13004,-0.13005 0.42169,0.13004 0.55174,0 0.26009,-0.2601 -0.329,-0.93899 0,-1.10348 0.32899,-0.1645 0.73565,0 1.10347,0 0.18392,0 0.4217,0.13004 0.55174,0 0.13005,-0.13005 -0.13004,-0.42169 0,-0.55174 0.13005,-0.13005 0.36783,0 0.55174,0 0.91957,0 1.83913,0 2.7587,0"
       id="path3713"
       inkscape:export-filename="/Users/andre/Desktop/scrooby_logo.png"
       inkscape:export-xdpi="89.93"
       inkscape:export-ydpi="89.93" />
    <path
       style="fill:none;stroke:#000000;stroke-width:5;stroke-linecap:butt;stroke-linejoin:miter;stroke-miterlimit:4;stroke-opacity:1;stroke-dasharray:none"
       d="m 303.7324,777.59628 c -5.09033,0 0.69721,0.17842 -4.41391,-0.55174 -0.91032,-0.13005 -1.83913,0 -2.75869,0 -0.18392,0 -0.36783,0 -0.55174,0 -0.18391,0 -0.42169,-0.13005 -0.55174,0 -0.13005,0.13005 0.13005,0.42169 0,0.55174 -0.13005,0.13005 -0.42169,-0.13005 -0.55174,0 -0.13005,0.13005 0.1645,0.46949 0,0.55174 -0.32899,0.16449 -0.77448,-0.1645 -1.10348,0 -0.16449,0.0823 0,0.36782 0,0.55174 0,0.36782 0.11632,0.75452 0,1.10347 -0.0823,0.24675 -0.43542,0.31911 -0.55174,0.55174 -0.16449,0.329 0.1645,0.77449 0,1.10348 -0.11631,0.23263 -0.43542,0.31911 -0.55173,0.55174 -0.14588,0.29174 0.0672,1.93815 0,2.20695 -0.0998,0.39897 -0.4217,0.71334 -0.55174,1.10348 -0.0617,0.185 0.1428,1.58382 0,1.65522 -0.329,0.16449 -0.84339,-0.26009 -1.10348,0 -0.25055,0.25055 0.17436,2.11977 0,2.20695 -0.32899,0.1645 -0.84339,-0.26009 -1.10348,0 -0.26009,0.2601 0,0.73565 0,1.10348 0,0.13111 0.0618,2.08329 0,2.20696 -0.11632,0.23263 -0.46949,0.30499 -0.55174,0.55173 -0.1017,0.30513 0,2.75481 0,3.31044 0,0.18391 -0.13004,0.42169 0,0.55174 0.13005,0.13004 0.4217,-0.13005 0.55174,0 0.29079,0.29079 0.26095,0.81268 0.55174,1.10347 0.58158,0.58159 1.54897,0.60999 2.20696,1.10348 0.41614,0.31211 0.63821,0.87084 1.10347,1.10348 0.329,0.16449 0.74664,-0.0892 1.10348,0 0.39896,0.0997 0.70451,0.452 1.10348,0.55174 0.35684,0.0892 0.75453,-0.11632 1.10348,0 0.24674,0.0822 0.30499,0.46949 0.55173,0.55174 0.30513,0.1017 2.75481,0 3.31044,0 0.49731,0 2.41143,0.11575 2.75869,0 3.99647,-1.33216 -0.86987,0.15906 1.65522,-1.10348 0.16449,-0.0823 0.46949,0.16449 0.55174,0 0.16449,-0.329 -0.1645,-0.77449 0,-1.10348 0.0822,-0.1645 0.42169,0.13005 0.55173,0 0.2601,-0.26009 -0.26009,-0.84338 0,-1.10348 0.13005,-0.13004 0.46949,0.1645 0.55174,0 0.49349,-0.43524 -0.24674,-1.16172 0,-1.65521 0.11632,-0.23264 0.43543,-0.31911 0.55174,-0.55174 0.1645,-0.329 -0.32899,-0.93898 0,-1.10348 0.329,-0.1645 0.77449,0.1645 1.10348,0 0.1645,-0.0823 0,-0.36783 0,-0.55174 0,-0.55174 -0.17448,-1.13179 0,-1.65521 0.0822,-0.24675 0.43542,-0.31911 0.55174,-0.55174 0.0839,-0.16792 0,-1.40674 0,-1.65522 0,-1.10348 0,-2.20695 0,-3.31043 0,-0.18391 0,-0.36783 0,-0.55174 0,-0.18391 0.13004,-0.42169 0,-0.55174 -0.13005,-0.13005 -0.42169,0.13005 -0.55174,0 -0.13005,-0.13005 0.0822,-0.38724 0,-0.55174 -0.11632,-0.23263 -0.46949,-0.30499 -0.55174,-0.55174 -8.3e-4,-0.002 5.3e-4,-1.65469 0,-1.65521 -0.13005,-0.13005 -0.46949,0.16449 -0.55174,0 -0.16449,-0.329 0.11632,-0.75453 0,-1.10348 -0.0822,-0.24675 -0.43542,-0.31911 -0.55174,-0.55174 -0.0822,-0.1645 0.13005,-0.42169 0,-0.55174 -0.13004,-0.13004 -0.55174,0.18391 -0.55174,0 0,-1.1187 1.17229,-2.37962 0.55174,-3.31043 -0.51008,-0.76512 -1.83913,0 -2.75869,0 -0.18391,0 -0.73565,0 -0.55174,0 1.10348,0 4.41391,0 3.31043,0 -1.28739,0 -2.57478,0 -3.86217,0"
       id="path3715"
       inkscape:export-filename="/Users/andre/Desktop/scrooby_logo.png"
       inkscape:export-xdpi="89.93"
       inkscape:export-ydpi="89.93" />
    <path
       style="fill:none;stroke:#000000;stroke-width:5;stroke-linecap:butt;stroke-linejoin:miter;stroke-miterlimit:4;stroke-opacity:1;stroke-dasharray:none"
       d="m 328.49194,778.14802 c -1.4713,0 -2.9426,0 -4.41391,0 -0.36782,0 -0.73565,0 -1.10347,0 -0.18392,0 -0.4695,-0.1645 -0.55174,0 -0.1645,0.32899 0.26009,0.84338 0,1.10348 -0.2601,0.26009 -0.75453,-0.11632 -1.10348,0 -1.09793,0.36597 -0.25748,0.51495 -0.55174,1.10347 -0.11632,0.23264 -0.43542,0.31911 -0.55174,0.55174 -0.1645,0.329 0.1645,0.77449 0,1.10348 -0.11632,0.23263 -0.43542,0.3191 -0.55174,0.55174 -0.22069,0.44139 0.2207,1.21382 0,1.65521 -0.29369,0.58738 -0.80978,0.5161 -1.10348,1.10348 -0.0987,0.19737 0.17046,1.56999 0,1.65522 -0.32899,0.16449 -0.84338,-0.26009 -1.10347,0 -0.26009,0.26009 0,0.73565 0,1.10348 0,2.02304 0,4.04608 0,6.06912 0,0.55174 -0.17448,1.13179 0,1.65522 0.68178,2.04535 0.55174,-0.67254 0.55174,1.10348 0,0.18391 -0.1645,0.46949 0,0.55173 0.32899,0.1645 0.77448,-0.16449 1.10347,0 0.1645,0.0822 -0.13004,0.4217 0,0.55174 0.13005,0.13005 0.38725,-0.0823 0.55174,0 0.46527,0.23264 0.60999,0.93898 1.10348,1.10348 0.34895,0.11632 0.75453,-0.11632 1.10348,0 0.24674,0.0822 0.36782,0.36783 0.55174,0.55174 0.36782,0.18391 0.70022,0.47109 1.10347,0.55174 4.20902,0 -0.43524,-0.24675 2.7587,0.55174 0.35684,0.0892 0.75452,-0.11632 1.10348,0 0.24674,0.0822 0.30499,0.46949 0.55173,0.55174 0.34895,0.11631 0.73566,0 1.10348,0 0.18391,0 0.38724,-0.0823 0.55174,0 0.23263,0.11631 0.31911,0.43542 0.55174,0.55173 0.14507,0.0725 1.91844,0 2.20695,0 0.18392,0 0.4217,0.13005 0.55174,0 0.27587,-0.27586 -0.27587,-1.37934 0,-1.65521 0.91957,-0.91957 0.55174,2.02304 0.55174,-1.10348 0,-0.6044 -0.0557,-2.1791 0,-2.20695 0.32899,-0.1645 0.77449,0.16449 1.10348,0 0.0756,-0.0378 0,-1.63374 0,-2.20696 0,-2.57478 0,-5.14956 0,-7.72434 0,-0.13381 0.0177,-1.63747 0,-1.65522 -0.13005,-0.13004 -0.42169,0.13005 -0.55174,0 -0.29079,-0.29079 -0.42169,-0.71334 -0.55174,-1.10348 -0.0582,-0.17447 0.13005,-0.42169 0,-0.55173 -0.13004,-0.13005 -0.42169,0.13004 -0.55174,0 -0.13004,-0.13005 0.0822,-0.38725 0,-0.55174 -1.1481,-2.29621 0.0381,0.58983 -1.10347,-0.55174 -0.13005,-0.13005 0.0822,-0.38724 0,-0.55174 -0.11632,-0.23263 -0.305,-0.46949 -0.55174,-0.55174 -0.34895,-0.11632 -1.10348,0.36783 -1.10348,0 0,-0.9904 0.73565,-1.83913 -1.65522,-3.31043 z"
       id="path3717"
       inkscape:export-filename="/Users/andre/Desktop/scrooby_logo.png"
       inkscape:export-xdpi="89.93"
       inkscape:export-ydpi="89.93" />
    <path
       style="fill:none;stroke:#000000;stroke-width:5;stroke-linecap:butt;stroke-linejoin:miter;stroke-miterlimit:4;stroke-opacity:1;stroke-dasharray:none"
       d="m 342.21671,768.76846 c 0.18391,0.36782 0.42169,0.71334 0.55174,1.10348 0.0582,0.17447 0,0.36782 0,0.55174 0,0.91956 0,1.83912 0,2.75869 0,2.39087 0,4.78173 0,7.1726 0,3.12652 0,6.25304 0,9.37956 0,0.24905 -0.0891,3.59485 0,3.86217 0.63399,1.90196 0.55174,0.40871 0.55174,1.65522 0,1.10348 0,2.20695 0,3.31043 0,0.55174 0,1.10348 0,1.65522 0,0.18391 -0.0823,0.38724 0,0.55174 0.68178,1.36357 0.55174,-0.19045 0.55174,1.10347 0,0.18392 0.18391,0.55174 0,0.55174 -0.18392,0 0.0361,-0.37139 0,-0.55174 -0.52121,-2.60604 -1.4121,-5.04999 -1.65522,-7.72434 -0.0832,-0.91579 0.13005,-1.84837 0,-2.75869 -0.0582,-0.40711 -0.42169,-0.71334 -0.55174,-1.10348 -0.0582,-0.17447 0,-0.36783 0,-0.55174 0,-0.73565 0,-1.4713 0,-2.20695 0,-0.91957 0,-1.83913 0,-2.7587 0,-0.31791 -0.10055,-2.5576 0,-2.75869 0.11632,-0.23263 0.43542,-0.31911 0.55174,-0.55174 0.0823,-0.1645 -0.13005,-0.42169 0,-0.55174 0.29079,-0.29079 0.81269,-0.26095 1.10348,-0.55174 0.13004,-0.13004 -0.1645,-0.46949 0,-0.55174 0.35695,-0.17847 2.00876,0.1982 2.20695,0 0.13005,-0.13004 -0.16449,-0.46949 0,-0.55173 0.329,-0.1645 0.73565,0 1.10348,0 0.18391,0 0.42169,0.13004 0.55174,0 0.13004,-0.13005 -0.1645,-0.4695 0,-0.55174 0.32899,-0.1645 0.73565,0 1.10348,0 0.18391,0 0.42169,0.13004 0.55173,0 0.13005,-0.13005 -0.13004,-0.4217 0,-0.55174 0.13005,-0.13005 0.36783,0 0.55174,0 0.91957,0 1.83913,0 2.7587,0 0.18391,0 0.36782,0 0.55174,0 0.18391,0 0.42169,-0.13005 0.55173,0 0.73566,0.73565 -1.17041,0.52942 0.55174,1.10348 0.34895,0.11631 0.77449,-0.1645 1.10348,0 0.1645,0.0822 -0.1645,0.46949 0,0.55173 0.32899,0.1645 0.73565,0 1.10348,0 0.18391,0 0.42169,-0.13004 0.55174,0 0.13004,0.13005 -0.1645,0.46949 0,0.55174 0.32899,0.1645 0.73565,0 1.10347,0 0.18392,0 0.4217,-0.13004 0.55174,0 0.13005,0.13005 -0.13004,0.4217 0,0.55174 0.13005,0.13005 0.38725,-0.0822 0.55174,0 0.23264,0.11632 0.31911,0.43542 0.55174,0.55174 0.1645,0.0823 0.46949,-0.1645 0.55174,0 0.1645,0.32899 -0.11632,0.75453 0,1.10348 0.1637,0.49109 1.49152,1.16412 1.65522,1.65521 0.11631,0.34895 0,0.73566 0,1.10348 0,0.18391 -0.10202,0.39872 0,0.55174 0.28854,0.43282 0.81493,0.67066 1.10347,1.10348 0.1169,0.17534 0,3.41159 0,3.86217 0,1.65522 0,3.31043 0,4.96565 0,0.18391 0,0.36782 0,0.55174 0,0.18391 0.1645,0.46949 0,0.55174 -0.32899,0.16449 -0.77448,-0.1645 -1.10347,0 -0.1645,0.0822 0.16449,0.46949 0,0.55173 -0.329,0.1645 -0.77449,-0.16449 -1.10348,0 -0.1645,0.0822 0.13004,0.4217 0,0.55174 -0.13005,0.13005 -0.46949,-0.16449 -0.55174,0 -0.1645,0.329 0.1645,0.77449 0,1.10348 -0.1645,0.32899 -0.77448,-0.1645 -1.10348,0 -0.46526,0.23263 -0.63821,0.87084 -1.10348,1.10348 -0.16449,0.0822 -0.46949,-0.1645 -0.55173,0 -0.1645,0.32899 0.16449,0.77448 0,1.10348 -0.1645,0.32899 -0.77449,-0.1645 -1.10348,0 -0.23263,0.11631 -0.31911,0.43542 -0.55174,0.55173 -0.34678,0.17339 -1.86018,-0.17339 -2.20696,0 -0.23263,0.11632 -0.3191,0.43543 -0.55173,0.55174 -0.4414,0.2207 -1.21383,-0.22069 -1.65522,0 -0.23263,0.11632 -0.31911,0.43543 -0.55174,0.55174 -0.14507,0.0725 -1.91844,0 -2.20695,0 -0.18392,0 -0.36783,0 -0.55174,0 -0.18392,0 -0.38724,0.0822 -0.55174,0 -0.23264,-0.11631 -0.31911,-0.43542 -0.55174,-0.55174 -0.76105,-0.38052 -0.49352,0.66819 -1.10348,-0.55174 -0.10938,-0.21876 0.1128,-1.54242 0,-1.65521 -0.13004,-0.13005 -0.46949,0.16449 -0.55174,0 -0.16449,-0.329 0,-0.73565 0,-1.10348 0,-0.18391 -0.18391,-0.55174 0,-0.55174 0.0508,0 0.0582,1.82989 -0.55174,0 -0.11631,-0.34895 0.11632,-0.75453 0,-1.10348 -0.0822,-0.24674 -0.43542,-0.3191 -0.55173,-0.55173 -0.0823,-0.1645 -0.18392,-0.55174 0,-0.55174 0.18391,0 0.18391,0.55174 0,0.55174 -1.01766,0 -0.30074,-1.52972 -0.55174,-1.65522 -1.28739,-0.6437 -1.10348,0.68967 -1.10348,-0.55174"
       id="path3719"
       inkscape:export-filename="/Users/andre/Desktop/scrooby_logo.png"
       inkscape:export-xdpi="89.93"
       inkscape:export-ydpi="89.93" />
    <path
       style="fill:none;stroke:#000000;stroke-width:5;stroke-linecap:butt;stroke-linejoin:miter;stroke-miterlimit:4;stroke-opacity:1;stroke-dasharray:none"
       d="m 375.87277,778.69976 c 2.31221,3.4683 -0.12642,-0.33792 2.20696,3.86217 0.5208,0.93743 1.1417,1.81725 1.65522,2.75869 0.96468,1.76859 2.10692,4.11383 2.75869,6.06913 0.0582,0.17447 0,0.36782 0,0.55174 0,0.30795 -0.0842,2.50612 0,2.75869 0.0822,0.24675 0.43542,0.31911 0.55174,0.55174 0.17339,0.34678 -0.17339,1.86017 0,2.20695 0.11631,0.23264 0.43542,0.31911 0.55174,0.55174 0.16449,0.329 -0.1645,0.77449 0,1.10348 1.82988,1.82989 -0.2601,-0.52018 0.55174,1.10348 0.11631,0.23263 0.43542,0.3191 0.55173,0.55174 0.1645,0.32899 -0.16449,0.77448 0,1.10347 0.11632,0.23264 0.43543,0.31911 0.55174,0.55174 0.0823,0.1645 -0.10201,0.39872 0,0.55174 1.23353,1.85029 1.10348,0.36524 1.10348,1.65522 0,0.18391 0.18391,0.55174 0,0.55174 -0.18391,0 0,-0.36783 0,-0.55174 0,-1.50804 -0.13005,0.81183 1.10348,-1.65522 0.33912,-0.67824 0.34342,-1.47784 0.55174,-2.20695 0.15977,-0.55921 0.39196,-1.09601 0.55174,-1.65522 0.20831,-0.72912 0.21262,-1.52872 0.55173,-2.20695 0.41125,-0.82249 1.19899,-1.40855 1.65522,-2.20696 0.28855,-0.50496 0.32264,-1.12066 0.55174,-1.65522 0.32399,-0.75598 0.79801,-1.44329 1.10348,-2.20695 0.1366,-0.34152 -0.1645,-0.77448 0,-1.10348 0.11631,-0.23263 0.43542,-0.3191 0.55174,-0.55174 0.0822,-0.16449 0,-0.36782 0,-0.55174 0,-0.18391 0,-0.36782 0,-0.55173 0,-0.73566 0,-1.47131 0,-2.20696 0,-0.18391 -0.13005,-0.42169 0,-0.55174 0.13004,-0.13004 0.46949,0.1645 0.55173,0 0.1645,-0.32899 -0.16449,-0.77448 0,-1.10348 0.0822,-0.16449 0.4217,0.13005 0.55174,0 0.13005,-0.13004 -0.0822,-0.38724 0,-0.55173 0.11632,-0.23264 0.43543,-0.31911 0.55174,-0.55174 0.0822,-0.1645 -0.0822,-0.38725 0,-0.55174 0.11632,-0.23264 0.43542,-0.31911 0.55174,-0.55174 0.0822,-0.1645 -0.1645,-0.46949 0,-0.55174 0.32899,-0.1645 0.77448,0.1645 1.10348,0 0.32899,-0.1645 -0.26009,-0.84339 0,-1.10348 0.13004,-0.13004 0.42169,0.13005 0.55174,0 0.32873,-0.32873 -0.55067,-1.65521 0.55174,-1.65521 0.18391,0 0.0446,0.37331 0,0.55174 -0.96419,3.85675 -0.0762,-0.87494 -1.65522,3.86217 -0.29655,0.88965 -0.30499,1.85396 -0.55174,2.75869 -0.30605,1.12218 -0.73565,2.20696 -1.10348,3.31043 -0.18391,0.55174 -0.43768,1.08493 -0.55174,1.65522 -0.5536,2.76803 0.65156,-0.14972 -0.55173,1.65522 -1.6065,2.40974 0.24453,-0.18187 -0.55174,2.20695 -0.0822,0.24675 -0.48866,0.29941 -0.55174,0.55174 -0.13382,0.53526 0,1.10348 0,1.65522 0,0.18391 0.0822,0.38724 0,0.55173 -0.11632,0.23264 -0.43542,0.31911 -0.55174,0.55174 -0.0822,0.1645 0.0822,0.38725 0,0.55174 -0.11632,0.23264 -0.43542,0.31911 -0.55174,0.55174 -0.0822,0.1645 0,0.36783 0,0.55174 -0.18391,0.55174 -0.25252,1.15651 -0.55174,1.65522 -0.26763,0.44605 -0.81493,0.67065 -1.10348,1.10347 -0.10201,0.15303 0,0.36783 0,0.55174 0,0.36783 0.11632,0.75453 0,1.10348 -0.0822,0.24674 -0.43542,0.3191 -0.55173,0.55174 -0.0822,0.1645 0.0822,0.38724 0,0.55174 -0.11632,0.23263 -0.43543,0.3191 -0.55174,0.55174 -0.0822,0.16449 0.16449,0.46949 0,0.55173 -0.329,0.1645 -0.77449,-0.16449 -1.10348,0 -0.1645,0.0822 0,0.36783 0,0.55174 0,0.73566 0.14427,1.48559 0,2.20696 -0.10202,0.51008 -0.87084,0.63821 -1.10348,1.10348 -0.0823,0.16449 0.1645,0.46949 0,0.55173 -0.32899,0.1645 -0.77448,-0.16449 -1.10348,0 -0.16449,0.0823 0.13005,0.4217 0,0.55174 -0.73565,0.73566 -0.52942,-1.17041 -1.10347,0.55174 -0.11632,0.34895 0.16449,0.77449 0,1.10348 -0.23264,0.46527 -0.79137,0.68733 -1.10348,1.10348 -0.24675,0.32899 -0.26095,0.81268 -0.55174,1.10347 -0.13005,0.13005 -0.42169,-0.13004 -0.55174,0 -0.13004,0.13005 0.13005,0.4217 0,0.55174 -0.13004,0.13005 -0.42169,-0.13004 -0.55174,0 -0.13004,0.13005 0.13005,0.4217 0,0.55174 -0.13004,0.13005 -0.38724,-0.0822 -0.55174,0 -0.23263,0.11632 -0.3191,0.43542 -0.55173,0.55174 -0.329,0.1645 -0.84339,-0.26009 -1.10348,0 -0.13005,0.13005 0.16449,0.46949 0,0.55174 -1.10348,0.55174 -0.82761,-0.27587 -1.65522,0 -0.39014,0.13005 -0.71334,0.42169 -1.10348,0.55174 -0.17447,0.0582 -0.37726,-0.0582 -0.55173,0 -2.14871,0.71623 -0.0516,0.55174 -2.20696,0.55174"
       id="path3721"
       inkscape:export-filename="/Users/andre/Desktop/scrooby_logo.png"
       inkscape:export-xdpi="89.93"
       inkscape:export-ydpi="89.93" />
  </g>
</svg>
